<?xml version="1.0" encoding="UTF-8"?>
<svg version="1.1" xmlns="http://www.w3.org/2000/svg" width="524" height="524">
<path d="M0 0 C1.00724121 0.19867676 2.01448242 0.39735352 3.05224609 0.60205078 C50.04922841 10.05526329 94.30184535 30.91895947 129.53125 63.71875 C131.58044082 65.61230608 133.6674028 67.4059786 135.8125 69.1875 C177.28018468 105.49288107 202.51699333 159.85379183 213 213 C213.17934082 213.87188965 213.35868164 214.7437793 213.54345703 215.64208984 C219.05106321 243.5848505 218.7325628 277.13037077 213 305 C212.80132324 306.00724121 212.60264648 307.01448242 212.39794922 308.05224609 C202.94473671 355.04922841 182.08104053 399.30184535 149.28125 434.53125 C147.38769392 436.58044082 145.5940214 438.6674028 143.8125 440.8125 C107.50711893 482.28018468 53.14620817 507.51699333 0 518 C-0.87188965 518.17934082 -1.7437793 518.35868164 -2.64208984 518.54345703 C-30.5848505 524.05106321 -64.13037077 523.7325628 -92 518 C-93.00724121 517.80132324 -94.01448242 517.60264648 -95.05224609 517.39794922 C-142.04922841 507.94473671 -186.30184535 487.08104053 -221.53125 454.28125 C-223.58044082 452.38769392 -225.6674028 450.5940214 -227.8125 448.8125 C-269.28018468 412.50711893 -294.51699333 358.14620817 -305 305 C-305.26901123 303.69216553 -305.26901123 303.69216553 -305.54345703 302.35791016 C-311.05106321 274.4151495 -310.7325628 240.86962923 -305 213 C-304.80132324 211.99275879 -304.60264648 210.98551758 -304.39794922 209.94775391 C-294.94473671 162.95077159 -274.08104053 118.69815465 -241.28125 83.46875 C-239.38769392 81.41955918 -237.5940214 79.3325972 -235.8125 77.1875 C-199.50711893 35.71981532 -145.14620817 10.48300667 -92 0 C-90.69216553 -0.26901123 -90.69216553 -0.26901123 -89.35791016 -0.54345703 C-61.4151495 -6.05106321 -27.86962923 -5.7325628 0 0 Z " fill="#000000" transform="translate(308,3)"/>
<path d="M0 0 C7.64537123 4.53871736 14.37836775 10.83989492 21.18359375 16.5390625 C25.24972629 19.92391898 29.46571401 23.04463971 33.77734375 26.109375 C50.70071676 38.31856899 50.70071676 38.31856899 53.2734375 44.91015625 C54.46894868 57.47035504 52.24522888 69.97149263 50.3359375 82.34765625 C49.91577127 85.14303305 49.4988755 87.93887972 49.08287048 90.73487854 C48.82559738 92.45617097 48.56537698 94.17702675 48.30152893 95.89732361 C47.58611634 100.59655298 46.99080824 105.28568737 46.53912354 110.01803589 C45.90491431 114.53464584 43.42001661 117.74566493 40.2734375 120.91015625 C36.45240444 123.38420643 32.47653154 125.18103529 28.2734375 126.91015625 C27.39945312 127.27753906 26.52546875 127.64492187 25.625 128.0234375 C24.03752402 128.67194898 22.44404506 129.30606494 20.84350586 129.92163086 C12.83383959 133.00238879 4.90044958 136.27903373 -3.0390625 139.53515625 C-4.95174886 140.31919111 -6.86450683 141.1030513 -8.77734375 141.88671875 C-10.02511597 142.398396 -10.02511597 142.398396 -11.2980957 142.92041016 C-12.09948975 143.24702637 -12.90088379 143.57364258 -13.7265625 143.91015625 C-14.59071777 144.27351074 -15.45487305 144.63686523 -16.34521484 145.01123047 C-21.28728465 146.87679342 -26.55708336 146.63613637 -31.7265625 145.91015625 C-34.86697256 144.34503279 -37.16694581 142.27823699 -39.7265625 139.91015625 C-40.87827752 139.13739262 -42.04385594 138.38459832 -43.2265625 137.66015625 C-44.0515625 137.08265625 -44.8765625 136.50515625 -45.7265625 135.91015625 C-45.7265625 135.25015625 -45.7265625 134.59015625 -45.7265625 133.91015625 C-46.73009766 133.60271484 -46.73009766 133.60271484 -47.75390625 133.2890625 C-51.80793614 131.40854666 -54.88694674 128.71413705 -58.2890625 125.84765625 C-64.12733937 121.00488301 -70.03073484 116.36031716 -76.17578125 111.91015625 C-78.9308734 109.74996148 -81.36622347 107.49589703 -83.7265625 104.91015625 C-83.7265625 104.25015625 -83.7265625 103.59015625 -83.7265625 102.91015625 C-84.3865625 102.91015625 -85.0465625 102.91015625 -85.7265625 102.91015625 C-89.26017425 90.97309623 -85.91359199 76.74144483 -84.27294922 64.69506836 C-83.8502064 61.5876882 -83.44161081 58.47868918 -83.03515625 55.36914062 C-82.76904963 53.36577626 -82.50215023 51.36251701 -82.234375 49.359375 C-82.1134549 48.44355148 -81.99253479 47.52772797 -81.86795044 46.58415222 C-79.33793493 28.13020254 -79.33793493 28.13020254 -71.7265625 21.91015625 C-68.18180151 19.87218969 -64.53888491 18.3724169 -60.7265625 16.91015625 C-59.14374749 16.27930668 -57.56179763 15.64628436 -55.98046875 15.01171875 C-52.61134996 13.66294097 -49.24041101 12.31894632 -45.8671875 10.98046875 C-45.06877441 10.66271484 -44.27036133 10.34496094 -43.44775391 10.01757812 C-41.74793348 9.3418147 -40.04702222 8.66879077 -38.34521484 7.99804688 C-34.44724347 6.45067254 -30.58844199 4.88617343 -26.8125 3.05859375 C-18.07268206 -1.10416378 -9.41725338 -3.764203 0 0 Z " fill="#F6F6F6" transform="translate(279.7265625,114.08984375)"/>
<path d="M0 0 C5.81625 -0.04125 11.6325 -0.0825 17.625 -0.125 C19.4498291 -0.14320801 21.2746582 -0.16141602 23.15478516 -0.18017578 C24.61620795 -0.1860221 26.07763403 -0.19111733 27.5390625 -0.1953125 C28.28567139 -0.20554443 29.03228027 -0.21577637 29.80151367 -0.22631836 C35.68771601 -0.22826679 40.07155224 0.43033322 44.6875 4.1875 C49.0170946 9.45322317 50.61733872 14.20927405 50 21 C49.05040079 24.79839685 48.1980138 27.60148965 45 30 C44.34 30 43.68 30 43 30 C43 30.66 43 31.32 43 32 C43.7425 32.226875 44.485 32.45375 45.25 32.6875 C49.09146563 34.52092678 51.11488412 37.22976824 53 41 C53.40189118 46.82742206 53.09682328 51.90768848 50 57 C44.59781653 62.38854159 38.13044505 64.2287281 30.64819336 64.22631836 C29.87999268 64.21608643 29.11179199 64.20585449 28.3203125 64.1953125 C27.59900146 64.19329834 26.87769043 64.19128418 26.13452148 64.18920898 C23.46461541 64.17882024 20.79480067 64.15089814 18.125 64.125 C9.153125 64.063125 9.153125 64.063125 0 64 C0 42.88 0 21.76 0 0 Z " fill="#F8F8F8" transform="translate(23,294)"/>
<path d="M0 0 C2.296875 1.51171875 2.296875 1.51171875 4.75 3.6875 C9.73467474 7.96300077 14.83931629 12.01878064 20.0625 16 C20.81305664 16.57580811 21.56361328 17.15161621 22.33691406 17.74487305 C26.00944438 20.62221559 26.00944438 20.62221559 30 23 C30 23.66 30 24.32 30 25 C31.06927734 25.35771484 31.06927734 25.35771484 32.16015625 25.72265625 C35.4605434 27.20714951 37.70351461 29.0675404 40.4375 31.4375 C41.48546455 32.33380518 42.53501266 33.22826137 43.5859375 34.12109375 C44.13604492 34.5888623 44.68615234 35.05663086 45.25292969 35.53857422 C48.30436839 38.09110525 51.43144129 40.5462807 54.5625 43 C55.15796631 43.46849365 55.75343262 43.9369873 56.36694336 44.41967773 C58.86362006 46.37405086 61.36038102 48.24025401 64 50 C64 50.66 64 51.32 64 52 C63.27039063 52.27972656 62.54078125 52.55945313 61.7890625 52.84765625 C58.89987107 53.95696308 56.01170013 55.0688857 53.12402344 56.18212891 C51.62765975 56.75831492 50.13087556 57.33340948 48.63378906 57.90771484 C46.17153921 58.85259957 43.71067977 59.80103499 41.25 60.75 C40.45158691 61.05558838 39.65317383 61.36117676 38.83056641 61.67602539 C35.14152962 62.87776185 35.14152962 62.87776185 32 65 C26.87707969 66.04194989 24.34430854 65.86190924 19.88671875 63.00390625 C16.82983209 60.64844545 13.89938615 58.14218579 10.96386719 55.63818359 C7.61271294 52.8427777 4.11119444 50.24840111 0.625 47.625 C-5.31769588 43.10397564 -11.19069544 38.5037726 -17 33.8125 C-17.68884277 33.25965332 -18.37768555 32.70680664 -19.08740234 32.13720703 C-23.87979858 28.24040284 -23.87979858 28.24040284 -25 26 C-25.09745179 24.08535894 -25.12976894 22.16711358 -25.125 20.25 C-25.12757813 19.22390625 -25.13015625 18.1978125 -25.1328125 17.140625 C-25.08898437 16.10421875 -25.04515625 15.0678125 -25 14 C-24.98324219 12.948125 -24.96648437 11.89625 -24.94921875 10.8125 C-24 8 -24 8 -20.76171875 6.171875 C-19.41257181 5.67307535 -18.05373974 5.19987501 -16.6875 4.75 C-15.33682257 4.26678905 -13.98654997 3.78244478 -12.63671875 3.296875 C-10.83654297 2.65492188 -10.83654297 2.65492188 -9 2 C-8.28457031 1.61328125 -7.56914062 1.2265625 -6.83203125 0.828125 C-4.33373224 -0.30117007 -2.71677326 -0.37918154 0 0 Z " fill="#040404" transform="translate(228,185)"/>
<path d="M0 0 C4.64999621 1.47206584 7.85492011 4.19048454 11.4375 7.375 C15.46418179 10.92265368 19.48019594 14.07505009 24 17 C26.12742225 18.58462315 28.02546761 20.21351832 30 22 C30 22.66 30 23.32 30 24 C30.66 24 31.32 24 32 24 C32.33131181 32.56333134 31.30569086 40.90591643 30.1875 49.375 C30.00181594 50.79996018 29.81618815 52.22492769 29.63061523 53.64990234 C29.26223165 56.46705241 28.88874454 59.28347348 28.51269531 62.09960938 C28.06482865 65.50680836 27.64674403 68.91558479 27.2421875 72.328125 C27.0168189 74.09390279 26.79036131 75.85954215 26.5625 77.625 C26.47701904 78.40407715 26.39153809 79.1831543 26.3034668 79.98583984 C25.54005396 85.53691509 23.91270918 88.1905588 20 92 C17.01394521 93.85035677 14.49855244 94.37942834 11 94 C8.20529011 92.3927032 6.01846911 90.52751418 3.640625 88.3515625 C0.07727334 85.17828188 -3.89755401 82.76162854 -7.9453125 80.25 C-10.47914857 77.47530499 -10.24929925 75.83008027 -10.1522522 72.1880188 C-9.91485803 68.77642334 -9.32893523 65.44470242 -8.6953125 62.08984375 C-7.37180661 54.62703468 -6.33551106 47.1534682 -5.4296875 39.62890625 C-5.30144592 38.56368744 -5.17320435 37.49846863 -5.04107666 36.40097046 C-4.64939852 33.12182678 -4.26164883 29.84224025 -3.875 26.5625 C-3.47959449 23.2188913 -3.08293143 19.8754546 -2.68240356 16.53245544 C-2.43557371 14.47167446 -2.19169238 12.41053761 -1.95114136 10.34901428 C-1.84077545 9.42632248 -1.73040955 8.50363068 -1.61669922 7.55297852 C-1.47371902 6.33868919 -1.47371902 6.33868919 -1.32785034 5.09986877 C-1 3 -1 3 0 0 Z " fill="#040404" transform="translate(291,137)"/>
<path d="M0 0 C3.3252799 1.48191822 5.74276453 3.1225835 8 6 C8.92375899 9.76369371 8.49853745 13.18571822 8 17 C7.84273438 18.26199219 7.68546875 19.52398437 7.5234375 20.82421875 C7.06258833 24.22556079 6.55383166 27.612726 6 31 C5.33355469 31.23074219 4.66710937 31.46148437 3.98046875 31.69921875 C-0.84359496 33.40619514 -5.55415912 35.19916059 -10.1875 37.375 C-14.4521261 39.35757196 -18.77256823 41.07497377 -23.1875 42.6875 C-31.33677546 45.66801276 -39.3241426 49.00871486 -47.3112793 52.3972168 C-53.80644994 55.13906838 -60.35101353 57.6554045 -67 60 C-66.44872009 54.4989303 -65.872982 49.00139901 -65.26904297 43.50585938 C-65.02906611 41.27072099 -64.81131998 39.03463561 -64.59765625 36.796875 C-64.46230469 35.58515625 -64.32695312 34.3734375 -64.1875 33.125 C-64.07792969 32.05507812 -63.96835938 30.98515625 -63.85546875 29.8828125 C-62.7415222 26.12896521 -61.18059475 24.14915439 -58 22 C-54.07313167 19.99078087 -50.02671627 18.33590276 -45.9375 16.6875 C-44.78604492 16.21183594 -43.63458984 15.73617187 -42.44824219 15.24609375 C-34.43349229 11.94707637 -26.39185634 8.70674638 -18.32006836 5.54956055 C-15.00757257 4.24782903 -11.82039261 2.91019631 -8.6328125 1.31640625 C-5.31174852 -0.34412574 -3.67335134 -0.66120324 0 0 Z " fill="#050505" transform="translate(273,122)"/>
<path d="M0 0 C2.97 0 5.94 0 9 0 C9.33 7.59 9.66 15.18 10 23 C12.31 21.68 14.62 20.36 17 19 C24.27747191 17.96848333 31.69636663 18.01198705 38 22 C43.19829364 26.1194025 46.76441847 30.39565273 48 37 C49.12367095 46.84790274 47.57023109 53.92352373 41.61328125 61.84375 C36.86066084 67.15626816 31.1296861 69.08279299 24.125 69.5 C18.33877569 69.35624287 13.8892678 66.91275529 9 64 C9 65.32 9 66.64 9 68 C6.03 68 3.06 68 0 68 C0 45.56 0 23.12 0 0 Z " fill="#F5F5F5" transform="translate(258,290)"/>
<path d="M0 0 C1.29808594 -0.00515625 2.59617187 -0.0103125 3.93359375 -0.015625 C9.19711609 0.36964897 12.51158802 1.9492569 16.5625 5.25 C16.5625 3.6 16.5625 1.95 16.5625 0.25 C19.5325 0.25 22.5025 0.25 25.5625 0.25 C25.5625 16.42 25.5625 32.59 25.5625 49.25 C22.5925 49.25 19.6225 49.25 16.5625 49.25 C16.0675 47.27 16.0675 47.27 15.5625 45.25 C14.7890625 45.930625 14.7890625 45.930625 14 46.625 C8.44313315 50.3295779 2.07144177 50.98991523 -4.4375 50.25 C-11.0173481 48.13106586 -16.1814081 44.68222092 -19.75 38.6875 C-23.32417969 31.4067636 -23.57769274 23.28470648 -21.7890625 15.38671875 C-19.69045148 9.47652788 -16.69729753 5.66425453 -11.4375 2.25 C-10.85871094 1.87359375 -10.27992187 1.4971875 -9.68359375 1.109375 C-6.42499039 -0.13739498 -3.47574556 -0.01377897 0 0 Z " fill="#F6F6F6" transform="translate(123.4375,308.75)"/>
<path d="M0 0 C5.50322391 3.24850499 9.86541093 8.15153472 12.76171875 13.8125 C14.43597704 22.68606895 14.23028466 31.28303615 9.38671875 39.125 C4.6629151 44.55583717 -0.89184286 48.47653084 -8.14453125 49.47265625 C-15.4188744 49.87111044 -20.45203535 47.8671884 -26.61328125 44.125 C-26.61328125 43.465 -26.61328125 42.805 -26.61328125 42.125 C-27.60328125 41.795 -28.59328125 41.465 -29.61328125 41.125 C-35.2966349 33.77007174 -35.34815126 26.15340298 -34.61328125 17.125 C-33.16421164 10.73512679 -30.60903895 6.36523353 -25.4921875 2.28125 C-18.35954635 -2.10806763 -7.94155545 -2.65905594 0 0 Z " fill="#F4F4F4" transform="translate(345.61328125,309.875)"/>
<path d="M0 0 C3.3 0 6.6 0 10 0 C14.03472605 7.53740031 17.29568539 15.15139469 20.31591797 23.13427734 C22.49511857 28.83953726 24.94899733 34.35453695 27.5769043 39.86499023 C31.32132003 47.72836999 34.32816761 55.71731958 37 64 C33.7 64 30.4 64 27 64 C26.20558928 62.12616097 25.41460026 60.25087114 24.625 58.375 C24.18414062 57.33085937 23.74328125 56.28671875 23.2890625 55.2109375 C22.0744533 52.18545641 21.03096127 49.0928838 20 46 C9.77 46 -0.46 46 -11 46 C-11.33 47.98 -11.66 49.96 -12 52 C-12.79671124 54.14720211 -13.65188125 56.27357211 -14.5625 58.375 C-15.01753906 59.43460937 -15.47257812 60.49421875 -15.94140625 61.5859375 C-16.29074219 62.38257813 -16.64007813 63.17921875 -17 64 C-20.3 64 -23.6 64 -27 64 C-26.41650529 60.54157821 -25.52942437 57.71162726 -24 54.5625 C-21.30870899 48.80438899 -18.89435417 42.94973052 -16.5 37.0625 C-16.10506348 36.0938501 -15.71012695 35.1252002 -15.30322266 34.12719727 C-13.71248596 30.22202827 -12.12660064 26.31513294 -10.5546875 22.40234375 C-7.43430899 14.72538602 -3.78170304 7.36723705 0 0 Z " fill="#F5F5F5" transform="translate(451,294)"/>
<path d="M0 0 C2.97 0 5.94 0 9 0 C10 1 10 1 10.11352539 4.60180664 C10.11336625 6.20459856 10.10767063 7.8073956 10.09765625 9.41015625 C10.0962413 10.25219101 10.09482635 11.09422577 10.09336853 11.96177673 C10.08775263 14.66205335 10.07519748 17.36224828 10.0625 20.0625 C10.05748705 21.88867068 10.05292379 23.71484266 10.04882812 25.54101562 C10.03777804 30.02737542 10.02050279 34.51367384 10 39 C16.16640283 33.76659045 16.16640283 33.76659045 21.6875 27.875 C22.55375 26.88113281 22.55375 26.88113281 23.4375 25.8671875 C24.7518839 24.29649874 25.98082303 22.65487127 27.1875 21 C31.71880484 17.77773878 36.61743308 18.61369137 42 19 C40.43622501 22.32302186 38.78646849 24.56184007 36 27 C35.34 27 34.68 27 34 27 C34 27.66 34 28.32 34 29 C29.69767442 33.76744186 29.69767442 33.76744186 26 35 C26 35.66 26 36.32 26 37 C25.34 37 24.68 37 24 37 C26.18488185 41.68290637 28.78045284 45.72435013 31.8125 49.875 C32.47354736 50.79309448 32.47354736 50.79309448 33.14794922 51.72973633 C36.02170376 55.70760653 38.9668188 59.62164442 42.0390625 63.44921875 C43 65 43 65 43 68 C39.37 68 35.74 68 32 68 C31.29875 66.68 30.5975 65.36 29.875 64 C26.85439155 58.550891 23.1964913 53.75327631 19.3203125 48.89453125 C18 47 18 47 18 45 C17.54625 45.495 17.0925 45.99 16.625 46.5 C15 48 15 48 13 48 C13 48.66 13 49.32 13 50 C12.01 50.495 12.01 50.495 11 51 C10.67 56.61 10.34 62.22 10 68 C6.7 68 3.4 68 0 68 C0 45.56 0 23.12 0 0 Z " fill="#ECECEC" transform="translate(210,290)"/>
<path d="M0 0 C0.70229736 0.00572021 1.40459473 0.01144043 2.12817383 0.01733398 C9.2006916 0.258581 14.87045797 2.12045797 19.96484375 7.21484375 C22.08090731 9.89362782 23.20037482 12.03352327 23.5625 15.4375 C23.459375 16.118125 23.35625 16.79875 23.25 17.5 C20.17701479 17.85457522 17.30838193 18.03004886 14.25 17.5 C11.9375 14.625 11.9375 14.625 10.25 11.5 C5.70365224 8.51583341 0.47071539 8.63847151 -4.75 9.5 C-8.78297602 11.73115776 -11.28820819 14.11462458 -12.75 18.5 C-13.65195183 27.14223652 -13.65195183 27.14223652 -11 35.125 C-7.23456933 39.15783003 -7.23456933 39.15783003 -2.1640625 40.93359375 C3.78235226 40.94192206 7.67167576 40.72614545 12.25 36.5 C12.91 35.18 13.57 33.86 14.25 32.5 C17.22 32.5 20.19 32.5 23.25 32.5 C23.11525596 37.88976141 20.95672149 40.87340078 17.3984375 44.6640625 C11.6206126 49.60147651 4.98878225 51.07958728 -2.4765625 50.7734375 C-5.41409417 50.42012613 -8.02728081 49.64640808 -10.75 48.5 C-10.75 47.84 -10.75 47.18 -10.75 46.5 C-11.49636719 46.25507813 -12.24273437 46.01015625 -13.01171875 45.7578125 C-18.04885475 43.44403534 -20.56663138 39.49055684 -22.75 34.5 C-24.01843147 25.4320644 -23.76562351 16.32798456 -18.42578125 8.578125 C-13.44224347 2.24733161 -8.08853933 -0.0764622 0 0 Z " fill="#F1F1F1" transform="translate(179.75,308.5)"/>
<path d="M0 0 C3.96032721 -0.94867154 7.0693121 -1.16391762 11 0 C15.28048593 3.82280641 18.24944149 9.02393537 21 14 C21 14.66 21 15.32 21 16 C24.39558122 12.92531986 26.3372048 9.7295776 28.5625 5.75 C32.10203833 0.23661704 32.10203833 0.23661704 35.96484375 -0.78125 C38.73623953 -0.75271568 41.28405609 -0.53919475 44 0 C42.45320161 4.84295209 39.66015744 8.24625379 36.5 12.125 C35.50952575 13.35605456 34.51991013 14.58780055 33.53125 15.8203125 C33.09361328 16.35930176 32.65597656 16.89829102 32.20507812 17.45361328 C29.68590567 20.36282766 29.68590567 20.36282766 29.23217773 23.97607422 C30.02817511 26.07426762 30.94311172 27.58941238 32.28515625 29.3828125 C32.73310547 29.99253906 33.18105469 30.60226562 33.64257812 31.23046875 C34.34543945 32.16826172 34.34543945 32.16826172 35.0625 33.125 C40 39.73976808 40 39.73976808 40 42 C40.99 42.33 41.98 42.66 43 43 C45 46 45 46 45 49 C41.45874064 49.71841122 38.51811738 49.91210451 35 49 C31.68040001 45.72541154 29.44027805 41.94813545 27 38 C26.26523437 37.09636719 25.53046875 36.19273437 24.7734375 35.26171875 C23 33 23 33 23 31 C22.34 31 21.68 31 21 31 C20.75121094 31.51046875 20.50242187 32.0209375 20.24609375 32.546875 C14.36702696 44.12071181 14.36702696 44.12071181 10 49 C6.0822851 50.17833584 2.95327779 49.93105234 -1 49 C0.60846759 43.87300954 3.7625919 40.06683266 7 35.875 C8.08392601 34.45618175 9.1672821 33.03692788 10.25 31.6171875 C10.72953125 30.99440918 11.2090625 30.37163086 11.703125 29.72998047 C14.31078482 26.53353947 14.31078482 26.53353947 14.85546875 22.61328125 C13.83825635 19.50590637 12.42430086 17.67741378 10.3125 15.1875 C9.59707031 14.32511719 8.88164062 13.46273438 8.14453125 12.57421875 C7.43683594 11.72472656 6.72914063 10.87523437 6 10 C4.82105277 8.50963275 3.65290244 7.01060487 2.5 5.5 C2.0153125 4.8709375 1.530625 4.241875 1.03125 3.59375 C0 2 0 2 0 0 Z " fill="#F3F3F3" transform="translate(360,309)"/>
<path d="M0 0 C4.881441 2.26638332 7.70028068 5.13520912 10 10 C10.93708786 16.24406505 10.49560889 21.85160927 7.25 27.33984375 C5.0939239 30.20338232 3.28582034 31.5396354 0 33 C-5.10494713 33.63914266 -10.53579751 33.80607014 -15 31 C-18.4144685 27.50792994 -20.63928807 24.92972977 -21 20 C-21.0825 18.906875 -21.165 17.81375 -21.25 16.6875 C-20.84442724 10.70530175 -19.35150005 6.66338468 -15.5625 2 C-11.03187754 -1.34970833 -5.32226017 -0.78225527 0 0 Z " fill="#060606" transform="translate(287,317)"/>
<path d="M0 0 C4.30528339 2.29367684 7.21359381 5.45577781 9 10 C9.93891171 16.91829678 9.67162458 22.7529739 5.40234375 28.44140625 C2.57939953 31.57888465 0.65329067 32.84970085 -3.62109375 33.23828125 C-12.10986967 33.45247347 -12.10986967 33.45247347 -16 31 C-21.13253328 25.28089148 -21.34778277 20.71049038 -21.28125 13.2421875 C-20.88426393 8.66582032 -19.87168244 6.57019979 -17 3 C-11.62531697 -0.88120335 -6.42542341 -1.06240466 0 0 Z " fill="#050505" transform="translate(341,317)"/>
<path d="M0 0 C4.30313101 2.49794757 7.41312093 5.23936279 9 10 C9.11979145 11.95566503 9.17528496 13.91570766 9.1875 15.875 C9.20167969 16.90367187 9.21585938 17.93234375 9.23046875 18.9921875 C8.93693736 22.82302091 8.21412409 25.6934969 5.5625 28.546875 C0.30337878 32.59639834 -2.57078518 33.46123172 -9.1640625 33.41796875 C-13.63575386 32.75891782 -16.25489985 30.48939844 -19 27 C-22.26231506 21.91430345 -21.57209492 15.79864106 -21 10 C-19.80298005 6.1889473 -18.00403071 3.72207688 -14.71875 1.359375 C-9.93257799 -1.03371101 -5.20291401 -0.96126189 0 0 Z " fill="#050505" transform="translate(131,317)"/>
<path d="M0 0 C0.17879399 6.79868649 -0.27793607 13.23082173 -1.375 19.9375 C-1.51075439 20.80342773 -1.64650879 21.66935547 -1.78637695 22.56152344 C-2.76254215 28.72446825 -3.80594485 34.87519949 -5 41 C-9.74140711 38.00542709 -14.05795532 34.60534045 -18.41796875 31.08203125 C-24.83377687 25.90861865 -31.38765332 20.9187211 -38 16 C-35.28577814 12.52497353 -31.51259055 11.51946947 -27.5 10.125 C-21.64673218 8.01721532 -15.96223084 5.73806182 -10.33203125 3.078125 C-3.67391304 0 -3.67391304 0 0 0 Z " fill="#080808" transform="translate(276,165)"/>
<path d="M0 0 C4.20872148 -0.08105241 8.4158763 -0.14053316 12.625 -0.1875 C14.40970703 -0.22520508 14.40970703 -0.22520508 16.23046875 -0.26367188 C23.2672891 -0.32263964 28.56271318 -0.32271059 33.875 4.8125 C35.41542833 7.80777732 35.47570543 9.670062 35 13 C32.97950054 16.70424901 31.61342445 17.79599416 27.59375 19.1328125 C22.09830671 20.39291415 16.60761942 20.21623786 11 20.125 C9.93910156 20.11597656 8.87820312 20.10695313 7.78515625 20.09765625 C5.19000532 20.07427651 2.59497195 20.03841241 0 20 C0 13.4 0 6.8 0 0 Z " fill="#090909" transform="translate(32,330)"/>
<path d="M0 0 C2.97 0 5.94 0 9 0 C9 22.44 9 44.88 9 68 C6.03 68 3.06 68 0 68 C0 45.56 0 23.12 0 0 Z " fill="#FCFCFC" transform="translate(84,290)"/>
<path d="M0 0 C3.87575108 -0.1081605 7.74846959 -0.1874032 11.625 -0.25 C13.26662109 -0.30027344 13.26662109 -0.30027344 14.94140625 -0.3515625 C21.27515938 -0.42833527 25.25338428 -0.38391751 30 4 C32.36086122 7.54129184 32.57269578 8.82750218 32 13 C30.32342845 15.88557335 28.40416656 18.49298141 25.16699219 19.66186523 C22.6058443 20.06150356 20.17087682 20.11206043 17.578125 20.09765625 C16.55332031 20.09443359 15.52851562 20.09121094 14.47265625 20.08789062 C13.40917969 20.07951172 12.34570312 20.07113281 11.25 20.0625 C10.17105469 20.05798828 9.09210937 20.05347656 7.98046875 20.04882812 C5.32028875 20.03705742 2.66013731 20.01912239 0 20 C0 13.4 0 6.8 0 0 Z " fill="#0D0D0D" transform="translate(32,302)"/>
<path d="M0 0 C2.97 0 5.94 0 9 0 C9 21.12 9 42.24 9 64 C6.03 64 3.06 64 0 64 C0 42.88 0 21.76 0 0 Z " fill="#F7F7F7" transform="translate(494,294)"/>
<path d="M0 0 C0.66 0 1.32 0 2 0 C3.67557981 3.76693513 5.33891867 7.53915174 7 11.3125 C7.47695313 12.38435547 7.95390625 13.45621094 8.4453125 14.56054688 C9.12207031 16.10258789 9.12207031 16.10258789 9.8125 17.67578125 C10.23144531 18.62364502 10.65039062 19.57150879 11.08203125 20.5480957 C12 23 12 23 12 26 C4.74 26 -2.52 26 -10 26 C-8.16305387 16.81526936 -3.92599743 8.46342069 0 0 Z " fill="#141414" transform="translate(455,306)"/>
<path d="M0 0 C0.66 0.66 1.32 1.32 2 2 C-1.88069019 6.6473919 -5.78141148 10.89179086 -10.51953125 14.67578125 C-12.26426365 16.12517606 -12.26426365 16.12517606 -14 19 C-14.99387334 20.33790641 -15.9926892 21.67218122 -17 23 C-17.33 21.35 -17.66 19.7 -18 18 C-17.34 18 -16.68 18 -16 18 C-16 17.34 -16 16.68 -16 16 C-11.69767442 11.23255814 -11.69767442 11.23255814 -8 10 C-8 9.34 -8 8.68 -8 8 C-6.50390625 6.5625 -6.50390625 6.5625 -4.5625 5 C-1.84811762 2.85474956 -1.84811762 2.85474956 0 0 Z " fill="#212121" transform="translate(252,309)"/>
<path d="M0 0 C0.66 0 1.32 0 2 0 C3.625 2.5 3.625 2.5 5 5 C2.92446352 5.5534764 1.15634036 6 -1 6 C-1.99 6.66 -2.98 7.32 -4 8 C-4.66 7.34 -5.32 6.68 -6 6 C-5.01 5.67 -4.02 5.34 -3 5 C-3 4.34 -3 3.68 -3 3 C-2.34 3 -1.68 3 -1 3 C-0.67 2.01 -0.34 1.02 0 0 Z " fill="#2B2B2B" transform="translate(226,335)"/>
<path d="M0 0 C2.475 0.495 2.475 0.495 5 1 C5 2.32 5 3.64 5 5 C6.65 4.67 8.3 4.34 10 4 C10 4.99 10 5.98 10 7 C6.4257023 6.67506385 4.44287547 6.36129314 1.625 4.0625 C0 2 0 2 0 0 Z " fill="#1E1E1E" transform="translate(169,343)"/>
<path d="M0 0 C0.66 0.33 1.32 0.66 2 1 C2 1.66 2 2.32 2 3 C0.71349294 3.69710731 -0.57940665 4.38242876 -1.875 5.0625 C-2.95394531 5.63677734 -2.95394531 5.63677734 -4.0546875 6.22265625 C-4.69664062 6.47917969 -5.33859375 6.73570312 -6 7 C-6.66 6.67 -7.32 6.34 -8 6 C-7.67 5.34 -7.34 4.68 -7 4 C-6.34 4 -5.68 4 -5 4 C-5 3.34 -5 2.68 -5 2 C-2.625 0.9375 -2.625 0.9375 0 0 Z " fill="#181818" transform="translate(273,151)"/>
<path d="M0 0 C0 0.99 0 1.98 0 3 C-2.64 3.99 -5.28 4.98 -8 6 C-8 5.34 -8 4.68 -8 4 C-8.66 3.67 -9.32 3.34 -10 3 C-8.70990357 2.49596232 -7.41786211 1.99690074 -6.125 1.5 C-5.04605469 1.08234375 -5.04605469 1.08234375 -3.9453125 0.65625 C-2 0 -2 0 0 0 Z " fill="#0D0D0D" transform="translate(241,120)"/>
<path d="M0 0 C0.66 0.66 1.32 1.32 2 2 C-0.31 4.97 -2.62 7.94 -5 11 C-5.33 10.01 -5.66 9.02 -6 8 C-4.78515625 5.95703125 -4.78515625 5.95703125 -3.0625 3.8125 C-2.49660156 3.09707031 -1.93070312 2.38164062 -1.34765625 1.64453125 C-0.90292969 1.10183594 -0.45820313 0.55914062 0 0 Z " fill="#282828" transform="translate(394,323)"/>
<path d="M0 0 C0.66 0.33 1.32 0.66 2 1 C-0.57784846 3.64752004 -2.91648098 5.94432065 -6 8 C-4.73058503 4.08597051 -3.48832306 2.20927127 0 0 Z " fill="#383838" transform="translate(327,318)"/>
<path d="M0 0 C0.99 0.33 1.98 0.66 3 1 C2.01 2.485 2.01 2.485 1 4 C-2.625 4.1875 -2.625 4.1875 -6 4 C-4.03617993 2.49440461 -2.21736634 1.10868317 0 0 Z " fill="#D9D9D9" transform="translate(221,175)"/>
<path d="M0 0 C0.66 0.66 1.32 1.32 2 2 C0.02 4.31 -1.96 6.62 -4 9 C-4 5.00095031 -2.27413033 3.19799578 0 0 Z " fill="#2C2C2C" transform="translate(379,343)"/>
<path d="M0 0 C0.99 0.33 1.98 0.66 3 1 C1.25 6.75 1.25 6.75 -1 9 C-2.25541557 5.23375329 -1.37061958 3.62811066 0 0 Z " fill="#383838" transform="translate(75,343)"/>
</svg>
